<svg xmlns="http://www.w3.org/2000/svg" version="1.1" xmlns:xlink="http://www.w3.org/1999/xlink" xmlns:svgjs="http://svgjs.dev/svgjs" width="1000" height="750" viewBox="0 0 1000 750"><rect width="1000" height="750" fill="#ffffff"></rect><g transform="matrix(0.5191111111111111,0,0,0.5191111111111111,240.4444444444445,83)"><svg viewBox="0 0 320 360" data-background-color="#ffffff" preserveAspectRatio="xMidYMid meet" height="1125" width="1000" xmlns="http://www.w3.org/2000/svg" xmlns:xlink="http://www.w3.org/1999/xlink"><g id="tight-bounds" transform="matrix(1,0,0,1,-5.684341886080802e-14,0)"><svg viewBox="0 0 320 360" height="360" width="320"><g><svg></svg></g><g><svg viewBox="0 0 320 360" height="360" width="320"><g><path xmlns="http://www.w3.org/2000/svg" d="M85.508 32.884c0-1.117 0.558-2.233 1.675-2.233 1.117 0 2.233 0.558 2.234 2.233 0.558 0 1.675 0 2.233-0.558 2.233 0 4.467-0.558 6.141 0 1.675 0.558 2.792 0.558 4.467 1.117 1.675 0.558 2.792 0 3.908-0.559 2.233-0.558 3.908-1.675 6.141-2.233 1.117-0.558 1.675-0.558 2.792-0.558 1.117-0.558 2.233-0.558 3.908-1.117 2.792-0.558 5.583-1.117 7.817-2.233 2.233-1.117 4.467-1.117 6.699-1.675 1.117 0 1.675-0.558 2.792-1.117 0.558 0 0.558-0.558 1.116-1.116 1.117-0.558 1.675-1.117 2.792-0.559 0.558 0.558 1.675 0.558 2.233 0h0.559c3.35 0 6.7-0.558 10.608 0 0.558 0 1.117 0 1.116 0 1.675-1.117 3.908-1.117 6.142-1.116 0.558 0 1.675 0 2.233 0h0.558c2.233 0 4.467 0 6.142 0.558 1.675 0 2.792 0.558 4.466 1.117 1.675 0 2.792 0 4.467 0.558 1.117 0 2.233 0 3.35 0 0.558 0 1.117 0 1.116 0 2.233 0.558 4.467 0.558 6.7 0.558 1.675 0.558 3.35 1.117 5.583 1.117 0.558 0 1.117 0 1.675 0 0.558 0 1.117 0.558 1.675 0.558l0.558 0.559c2.233 0 3.908 1.117 6.142 1.116 0.558 0 1.675 0 2.233 0.559 1.675 1.117 3.908 1.675 6.141 1.675 1.117 0 1.675 0.558 2.234 1.116 1.675 0.558 2.792 1.117 4.466 1.675 1.117 0.558 2.233 0 3.35 0.558 1.675 0.558 3.908 1.117 5.583 2.792 1.117 1.117 2.233 1.117 3.908 2.233 0.558 0 1.117 0.558 1.675 1.117 1.675 1.117 3.35 2.233 5.025 2.791 0.558 0 1.117 0.558 1.675 0.559 1.675 1.117 3.35 2.792 5.583 3.908 1.117 0.558 1.675 1.117 2.792 1.675h0.558c1.675 1.675 3.908 2.792 5.583 4.466 1.675 1.675 2.792 2.792 5.025 3.909 0 0 0 0 0 0.558 0.558 1.117 1.117 1.675 2.233 2.233 1.117 0.558 1.675 1.117 2.234 1.675 1.675 1.117 3.35 2.233 4.466 3.35 0.558 0.558 1.117 1.117 2.233 2.233 0.558 0.558 1.117 1.117 1.675 1.117 2.233 0.558 3.35 2.233 5.025 3.908 1.117 1.117 2.792 2.792 3.908 3.908 0.558 0.558 1.117 1.675 1.675 2.792 1.117 3.35 2.792 6.7 4.467 9.491 0 0 0 0.558 0.558 1.117v0.558c1.117 1.117 1.675 2.792 2.792 3.908 0.558 0.558 0.558 1.117 1.116 1.675 1.117 1.675 1.675 3.908 2.792 5.583 1.675 2.792 2.792 5.583 3.908 8.375v0.558c0.558 1.117 1.117 2.233 1.675 3.908 0 1.117 1.117 2.233 1.675 3.909 0.558 2.792 2.233 5.583 2.791 8.933 0 0.558 0.558 1.117 0.559 2.233 0.558 1.675 1.117 3.35 1.675 5.025 0 0.558 0.558 1.117 1.116 1.675 1.117 1.117 1.117 2.233 1.117 3.35-0.558 2.233 0 4.467 0.558 6.699 0 0.558 0 1.117 0 2.234 0.558 2.233 1.117 5.025 1.117 7.258 0 0.558 0 1.675 0 2.233 0 1.675 0.558 3.35 1.675 5.025 0 0.558 0.558 0.558 0.558 0.558 0.558 0.558 1.117 1.675 1.675 2.233 0.558 0.558 0.558 0.558 1.117 1.117 1.117 1.117 1.675 2.233 1.675 3.908 0 0.558-0.558 1.675-0.559 2.233 0 0.558 0 1.675 0.559 2.234 0.558 0.558 0.558 1.117 0.558 1.675 0 0.558-0.558 1.117-1.117 1.116v0c-0.558 1.675-2.792 2.233-3.35 3.908-0.558 2.233-1.117 4.467-1.674 6.7-0.558 1.675-0.558 2.792-0.559 4.467 0 1.675-0.558 2.792-0.558 4.466-0.558 2.233-1.117 4.467-1.675 6.7 0 1.117-0.558 2.233-0.558 3.35 0.558 0.558 1.117 1.117 1.675 1.116 1.117 1.117 2.233 2.233 3.349 3.35 0.558 0.558 0.558 1.117 0 1.117-0.558 0.558-1.117 0.558-1.674 0.558-0.558-0.558-1.675-1.117-2.234-1.116-0.558-0.558-1.675-1.117-2.791-0.559 0 1.117-0.558 2.233-0.559 2.792-0.558 1.117-1.117 2.792-1.116 3.908-0.558 2.233-1.675 3.908-2.233 6.142-1.117 2.792-2.233 5.025-3.35 7.258-0.558 1.117-1.117 2.233-1.675 3.35v0c0 1.675-1.675 3.35-2.234 5.024-1.117 2.233-2.233 4.467-3.349 7.258-0.558 1.117-1.117 2.233-1.675 2.792-1.117 2.792-2.233 5.025-3.909 7.258-1.117 1.675-2.233 2.792-3.349 3.35-1.117 1.117-2.233 2.233-3.35 3.35-0.558 0.558-1.117 1.117-1.675 1.675-0.558 0.558-0.558 0.558-1.117 1.116-1.117 1.675-2.792 2.792-3.908 4.467-1.117 1.117-1.675 2.233-3.35 3.35-1.117 1.117-2.233 2.792-3.908 3.35-0.558 0.558-1.117 1.675-1.675 2.233-0.558 0.558-1.117 1.675-1.675 2.233 0 1.117 0.558 2.233 0.558 2.792 0 1.675-1.675 2.233-2.791 1.116-1.675-1.117-1.675-1.117-3.35 0-1.675 1.117-3.35 2.792-5.583 3.35-0.558 0-0.558 0.558-1.117 0.559-1.117 0.558-1.675 1.675-2.792 2.233-1.117 1.117-2.792 1.675-3.908 2.791-0.558 0.558-1.117 0.558-1.675 1.117-1.675 1.117-3.35 1.675-5.024 3.35-0.558 0.558-1.117 0.558-1.675 1.117 0 0.558 0 0.558 0 1.116 0 1.117-1.117 2.233-2.792 1.675-1.675-0.558-2.792 0-4.466 0-1.675 0.558-3.35 1.675-5.025 2.233-0.558 0-1.117 0.558-1.675 1.117-1.675 1.117-3.35 1.675-5.025 2.233-1.117 0-2.233 1.117-3.35 1.117-0.558 0-1.117 0.558-1.675 0.558h-0.558c-2.233 1.675-4.467 2.792-6.7 4.467-0.558 0-0.558 0.558-1.117 1.116-0.558 1.117-1.117 1.675-2.233 1.675-2.792 0-3.908 2.233-3.35 4.467 0 0.558 0.558 1.117 0.559 1.675 0.558 1.117 0 2.233-0.559 2.791-0.558 0.558-2.233 0.558-2.791-0.558-1.117-1.117-1.675-2.233-2.234-3.908-0.558-1.117-1.675-2.233-2.791-2.792-1.117-0.558-2.233-0.558-3.35 0-0.558 0-0.558 0.558-1.117 0.558-1.117 1.117-2.792 1.675-4.466 1.117-0.558 0-1.675 0-1.675 0.558-0.558 0.558-0.558 1.675 0 2.234 1.117 1.117 0.558 2.233 0.558 3.908 0 2.233-1.675 3.35-3.908 2.233-0.558-0.558-1.117-0.558-1.675-1.117-0.558 0-0.558-0.558-0.558-1.116-0.558-0.558-0.558-1.675-1.117-2.792-1.117 0.558-2.233 0.558-3.35 1.117-0.558 0-1.117 0.558-1.675 0.558-1.675 0-2.233 0-2.791-1.675-0.558-1.675-1.675-1.675-2.792-2.233-2.233-0.558-5.025-0.558-7.258-1.675h-0.558c-2.233-1.675-4.467-1.675-7.258-1.675-1.675 0-3.35 0.558-5.025 0.558-1.675 0-2.792 0.558-3.908 1.675-0.558 0.558-1.117 1.117-1.675 1.117-0.558-0.558-0.558-1.117-1.117-1.675v-0.558c0-0.558-0.558-1.117-1.116-0.559-1.117 0.558-2.233-0.558-3.35-1.116-0.558-0.558-1.675-1.675-1.675-2.792-0.558-0.558-1.117-1.117-1.675-1.116-1.117 0-2.792-0.558-3.908-0.559-0.558 0-1.117 0-1.117-0.558-0.558-0.558-1.117-0.558-2.233-0.558-0.558 0-0.558-0.558-1.117-0.559 1.117 1.117 1.675 2.233 2.233 3.35 0 0.558 0.558 0.558 0.559 1.117 0.558 1.117 0 1.675-1.675 1.675-1.117 0-1.117 0-1.675 0.558 0 1.117 0 1.675 0 2.792 0 0.558 0 1.117-1.117 1.675 0 0-0.558 0-0.558 0.558-0.558 0.558-0.558 1.117 0 1.675 1.675 1.117 2.792 1.675 4.466 2.233 1.675 0 1.675 1.117 2.234 2.233 0.558 1.117 0 1.675-0.559 2.792-1.117 1.117-2.233 2.233-3.35 3.35-1.675 0.558-2.792 2.233-4.466 2.233-1.117 0-2.233-0.558-2.792-1.675-0.558-2.792-0.558-5.025 0.559-7.816 0-0.558 0.558-1.117 0-1.675-5.025 0-5.025-1.117-5.025-1.675 0-1.117 0.558-1.675 0.558-2.792 0.558-1.117 0-1.675-1.675-2.233-0.558 0-1.117 0-1.675 0-0.558 0-0.558-0.558-1.675-0.558 1.117-0.558 1.675-0.558 2.792-1.117-0.558-2.233-1.117-3.908-2.792-5.025-0.558-0.558-1.117-1.117-1.116-2.233 0-1.675-1.117-2.792-1.675-3.908-1.117-1.675-3.35-2.233-5.025-2.233-1.675-0.558-2.792-0.558-4.467-1.117-1.675-0.558-3.35-2.233-5.024-2.792-0.558-0.558-1.117-1.117-2.234-1.674-2.233-1.117-3.908-2.792-5.583-4.467-1.117-0.558-1.675-1.675-2.791-2.233-1.117-1.117-1.675-2.233-2.792-2.792-1.117-1.117-2.233-2.233-3.908-3.35-1.675-1.117-2.792-2.792-4.467-4.466-1.117-1.675-2.792-2.792-4.466-3.908-0.558 0-1.117 0-1.675 0-0.558 0-1.117 0.558-1.675 0.558-1.675 0.558-2.792 1.675-4.467 2.233 0.558-0.558 0.558-0.558 0-1.675-0.558-0.558-1.117-1.117-1.674-1.116-1.117 0-2.233 0-3.35 0-2.233 0-4.467 0.558-6.7 0.558-1.675 0-3.908 0.558-5.583 1.117 0.558 1.117 0.558 1.675 1.116 2.791-1.117 0.558-2.233 0.558-3.35 0.558-0.558 0-1.675 0.558-2.233 1.117-0.558 0-0.558 0.558-1.116 0-1.117-0.558-2.233 0-3.35 0.558h-0.559c0 0 0-0.558 0.559-0.558 0.558-0.558 1.117-1.117 1.675-1.675 0.558-0.558 1.117-0.558 2.233-1.117-0.558-0.558-0.558-1.117-0.558-1.116-0.558-0.558-1.117-0.558-1.675 0-0.558 0.558-1.117 1.117-1.675 1.675-0.558 0.558-1.117 0.558-1.675 0-0.558-0.558-0.558-1.117 0-1.675 0-0.558 0.558-1.117 1.116-1.675 0.558-0.558 0.558-1.117 1.117-1.675-1.117-1.117-1.675-2.233-2.792-2.792-1.675-1.117-3.35-2.792-4.466-4.466-1.117-2.233-2.792-3.908-5.025-5.025-0.558-0.558-1.117-1.117-1.675-1.675-0.558-0.558-0.558-0.558-1.116-1.117-1.675 0.558-2.792 1.675-4.467 2.234-0.558 0-0.558 0.558-1.117 1.116-0.558 1.117-1.675 1.117-2.791 1.117-0.558 0-1.117-0.558-0.558-1.117 0.558-1.117 1.117-2.233 2.791-1.675 0 0 0.558 0 0.558-0.558 1.117-1.117 2.233-2.792 3.909-3.908-0.558-1.675-1.675-2.792-2.234-3.908-0.558-0.558-0.558-1.117-0.558-2.234 0-0.558 0-0.558-0.558-1.116 0 0-0.558 0-1.117 0.558-0.558 0.558-1.675 1.117-2.791 0 0-0.558 0-1.117 0.558-1.675l0.558-0.558c1.675-0.558 1.675-2.233 1.675-3.908v-0.559c-0.558-1.117-0.558-1.675 0.558-2.791 1.675-1.117 3.35-3.35 3.909-5.025 0.558-1.117 1.675-1.675 2.791-2.792 1.117-1.117 2.233-2.233 2.792-3.908h0.558c2.233 0.558 2.792-1.117 3.908-2.791 0-0.558 0-1.117 0.559-1.117 1.117-1.117 1.117-2.233 0.558-3.908 0-0.558-0.558-1.675-0.558-2.233 0-0.558 0-0.558-0.559-1.117-1.675-1.117-1.675-2.233 0-3.35 1.117-0.558 1.117-1.675 1.675-2.233 0.558-1.117 0.558-2.233 0.559-3.908-0.558-1.675-0.558-3.908-1.117-5.583-0.558-2.233-1.117-5.025-1.675-7.259 0-0.558 0-0.558 0-1.116 0-1.675 0-2.792-0.558-4.467-0.558-0.558-0.558-1.675-0.559-2.233-0.558-1.675-1.117-2.792-2.791-3.35-1.675-1.117-3.908-1.675-5.583-2.791-0.558-0.558-1.117 0-1.675 0.558-0.558 1.117-1.675 2.233-2.234 3.35-0.558 0.558-1.117 1.675-1.675 2.791-1.117 1.117-3.35 2.233-5.024 0.559-0.558-1.117-1.117-1.675 0-2.792 1.117-1.675 2.233-3.35 3.908-4.466 0.558-0.558 1.117-1.675 1.675-2.234 0.558-1.117 0.558-2.233 0.558-3.35-0.558-2.233-1.117-4.467-1.117-7.258 0-2.792 0-5.025 0.559-7.816 0.558-1.117 0.558-2.792 1.116-3.908 0-0.558 0.558-1.675 1.117-2.233 1.117-1.117 2.233-2.233 2.792-3.909 0.558-1.675 1.675-3.35 1.675-5.024 0-0.558 0.558-1.117 0.558-1.675 0-0.558 0.558-1.675 0.558-2.234-0.558-1.675 0-2.792 0.558-3.908 0.558-1.117 1.117-2.792 1.675-3.908 1.117-2.233 1.117-5.025 3.35-7.258 0.558-1.117 1.117-2.233 1.675-3.35 0.558-2.233 1.675-3.908 2.792-5.583 0.558-0.558 0.558-0.558 0.558-1.117 0.558-1.675 1.675-3.35 2.792-5.025 1.117-1.675 1.117-3.35 1.675-5.024 0-0.558 0-1.117 0.558-1.675 1.675-1.675 1.117-3.908 0.558-6.142-1.117-2.792-1.675-5.583-1.116-8.374 0-0.558 0-1.117 0.558-1.117 0.558-1.117 0.558-1.675 1.117-2.792v-0.558c1.117-1.117 2.233-2.792 3.908-3.35 2.233-1.117 4.467-1.675 7.258-2.233 2.233 0 4.467-1.117 6.141-3.35 0-0.558 0.558-0.558 1.117-1.117l0.558-0.558c0.558-1.117 1.117-1.675 1.675-2.233 1.117-1.117 2.233-2.792 3.35-3.908 1.117-1.117 2.233-2.792 3.908-4.467l0.559-0.558c1.117-1.117 2.233-2.233 3.349-2.792 1.117-1.117 2.233-2.233 3.35-3.35 1.117-1.117 1.675-2.233 2.792-3.35 1.117-0.558 2.233-1.675 3.35-2.791 1.117-1.117 2.233-2.233 2.791-2.792 1.117-1.117 2.792-2.233 3.909-2.791 1.117-0.558 2.233-1.117 2.791-2.792 0.558-1.675 1.117-2.792 1.675-4.466 0-1.117 0.558-2.233 1.117-3.35 0.558 0 1.117 0 2.233-0.558-0.558-0.558-1.117-0.558-1.117-1.117 0-0.558 0.558-1.117 0.559-1.117 0-0.558 0.558-1.117 0.558-1.675 0 0 0.558 0 0.558-0.558 0 0 0.558 0 0.559-0.558-1.117 0.558-1.675 0-2.234-0.559 0.558 0.558 1.117 0.558 2.234 1.117 0 0 0.558 0 0.558-0.558 0-0.558 0-1.117 0-1.117 0 0-0.558 0-1.117 0-0.558 0-1.117 0.558-1.675 0.558zM182.097 295.292c0-0.558-0.558-0.558-0.559-1.117-0.558-1.117 0-1.675 0.559-2.233 0.558-0.558 1.117-0.558 2.233-0.558 1.117 0.558 1.675 1.117 1.675 2.233 0 0.558 0 1.675 0 2.233 0.558 2.233 0.558 2.233 2.791 2.233 1.117 0 2.233 0 3.35 0 2.233-0.558 4.467-1.675 6.7-2.233 2.233-0.558 4.467-1.117 6.7-1.675 0.558 0 1.117 0 2.233 0 2.233 0.558 3.908 0 5.583-1.117 0.558-0.558 1.675-0.558 2.233-1.116 1.117-0.558 2.233-0.558 3.35-1.117 2.792-1.675 5.583-2.792 7.817-4.466 1.675-1.117 3.35-2.233 5.024-3.35 1.675-1.117 3.35-2.233 5.025-3.35 1.117-0.558 2.792-1.675 3.908-2.792 2.233-1.675 3.908-3.35 6.142-4.466 1.117-0.558 1.675-1.117 2.233-1.675 1.117-0.558 1.675-1.675 2.792-2.233 0.558-0.558 1.117-1.117 2.233-1.675 0.558-0.558 0.558-0.558 0.558-1.117 1.675-1.117 3.35-3.35 4.467-5.025 1.117-1.117 2.233-2.233 3.35-3.908 1.675-1.675 2.792-3.908 4.466-6.141 1.117-1.117 2.233-2.792 2.792-3.909 1.117-2.233 2.233-4.467 3.908-6.141v-0.558c1.117-2.233 2.233-4.467 3.35-6.7 1.675-2.792 2.792-6.141 4.466-8.933 0.558-1.117 1.117-2.233 1.117-3.35 1.117-2.233 1.675-4.467 2.233-6.7 0-0.558 0-0.558 0.559-1.116 1.675-3.35 2.792-6.7 3.349-10.608 0.558-2.233 1.117-4.467 1.675-6.7 1.117-3.35 1.117-6.141 1.675-9.491 0.558-2.233 0.558-5.025 0.559-7.258 0.558-3.35 0.558-7.258 0-10.608 0-2.792-0.558-6.141-0.559-8.933 0-2.792-0.558-5.025-1.116-7.817-0.558-2.792-1.117-5.025-1.675-7.816-1.117-2.233-1.675-4.467-2.234-7.258-0.558-2.233-1.675-3.908-1.674-6.142 0-1.675-0.558-3.35-2.234-3.908-1.675-0.558-2.792-1.117-4.466-2.233-3.35-2.233-5.025-5.025-4.467-8.375 0-1.675 0.558-3.908 1.117-5.583 0.558-1.675 1.117-3.35 0-4.467-0.558-1.675-1.675-2.792-2.233-3.908-1.117-1.675-1.675-2.792-2.792-3.908-1.117-2.233-2.233-4.467-3.908-6.141-2.233-2.792-3.908-5.583-6.7-7.817l-0.558-0.558c-1.675-2.233-3.35-4.467-5.583-6.142-1.117-1.117-2.233-2.233-3.35-2.791-0.558-0.558-1.117-1.117-2.233-1.675-1.675-1.117-3.35-1.675-4.467-2.792-1.675-1.675-3.908-2.792-5.583-3.908 0 0-0.558 0-0.558-0.558-2.233-1.117-3.908-1.675-6.142-2.792-2.233-1.117-4.467-1.675-6.7-1.675-0.558 0-0.558 0-1.116 0-0.558-0.558-1.675-0.558-2.233-0.558-0.558 0-0.558 0-1.117 0-1.117-0.558-2.792 0-3.908 0-2.233 0.558-4.467 0.558-6.7-0.558-2.792-1.117-5.025-2.233-7.258-3.35-1.675-1.117-2.792-2.233-4.467-3.35-3.35-2.792-6.7-6.141-10.608-8.933 0.558-2.792-0.558-3.35-2.791-3.35-1.117 0-2.233 0.558-3.35 1.117-0.558 0.558-0.558 0.558-1.117 1.116-1.675 1.117-2.792 2.792-4.466 3.909-2.792 1.675-3.908 1.117-6.142 0-0.558-0.558-1.117-1.117-1.675-1.675-1.117-1.117-2.233-2.792-2.791-3.909-1.117-2.233-3.35-2.233-5.583-2.233-1.117 0-2.792 0.558-3.908 0.558-2.233 0-4.467 1.117-5.584 2.792-1.117 1.675-2.233 3.35-3.908 5.025-0.558 0.558-1.675 1.117-2.233 2.233-1.117 1.117-2.233 1.117-3.35 0-0.558-0.558-1.117-0.558-1.675-1.117-0.558 0.558-1.117 1.117-1.117 1.675-0.558 1.117-1.117 2.233-1.674 3.909-0.558 1.675-1.675 3.35-2.792 4.466-0.558 0.558-0.558 0.558-1.117 1.117-0.558 1.117-2.233 1.675-3.35 1.675-1.117 1.117-2.233 2.792-2.791 3.908-0.558 1.117-1.117 2.233-1.675 3.908-0.558 0.558-0.558 1.675-1.117 2.233-0.558 1.117-0.558 1.675-0.558 2.792 0.558 1.675-0.558 2.233-2.233 2.791-1.117 0-1.117 0-1.675 1.117 0 1.675 0.558 2.792 1.116 4.467 0.558 0.558 1.117 1.675 1.117 2.233 0 1.117 0.558 1.675 1.675 2.233 0.558 0.558 1.117 1.117 1.675 1.117 0.558 0 0.558 0.558 1.117 0.558 0.558 0.558 1.117 0 1.116-0.558 0.558-1.675 1.117-3.35 1.117-5.025 0.558-2.233 0.558-3.908 1.116-6.142 0.558-1.117 1.117-1.675 1.675-2.233 0 0 0.558 0 1.117 0v0.559c-0.558 2.792-1.675 6.141-2.233 8.933-0.558 1.117-0.558 2.233-1.117 3.349 0 0.558-0.558 1.117-1.116 1.117-1.117 0.558-2.233 1.117-3.35 1.117-0.558 0-1.117 0-1.675 0-1.117-0.558-2.233-1.675-3.35-2.234-0.558-0.558-1.117-1.117-1.675-1.674-0.558-1.117-1.117-2.233-1.675-3.35-0.558-1.117-1.117-1.675-2.233-2.234-0.558-0.558-1.117-0.558-1.675-1.116-1.117-1.117-2.233-1.675-3.908-1.675-0.558 0-1.675 0-2.234 0-0.558 0-1.675 0.558-2.233 1.116-1.117 0.558-1.675 0.558-2.791 0-2.792-1.117-5.583-0.558-8.375 0.559-1.117 0.558-2.233 1.117-3.35 1.116-2.792 0-5.025 0-7.816 0-2.792 0-5.025-0.558-7.817-1.116-1.117 0-2.233 0-3.35 0-2.233 0.558-2.792 2.233-2.233 4.466 0.558 2.233 1.117 5.025 1.117 7.258 0 1.675 0 3.35 0 5.025 0 1.117 0 1.675 0 2.792 0 1.675-0.558 3.35-0.559 5.025-0.558 3.35-2.233 6.141-4.466 8.374-1.675 1.675-3.908 3.35-6.142 3.908-1.117 0.558-2.233 1.117-3.908 1.675-2.792 1.117-5.025 3.35-6.7 6.142-0.558 1.117-1.117 2.233-1.674 3.35-1.117 1.675-1.675 2.792-2.792 4.466-0.558 1.117-1.675 2.233-2.233 3.35-0.558 1.117-1.675 1.675-1.675 2.792-1.117 2.233-1.675 4.467-2.792 6.699-0.558 1.117-0.558 2.792-1.116 3.909-1.117 2.233-1.117 4.467-1.117 7.258 0 0.558 0 1.117 0 2.233 0 2.792-0.558 6.141-0.558 8.933 0 2.792 0 5.583 0.558 8.375 0 1.117 0 2.792 0 3.908 0 2.233 0.558 5.025 0.558 7.258 0 2.233 0 5.025 1.117 7.258v0.558c0.558 2.233 0.558 4.467 1.116 6.7 0 0.558 0 1.117 0.559 1.675 1.117 3.35 1.675 6.141 2.791 9.491 0.558 2.233 1.675 4.467 2.234 6.7 0.558 2.233 2.792 4.467 3.349 7.258v0c1.675 3.35 3.35 6.7 5.584 10.05 0.558 1.117 1.675 2.233 2.233 3.35 1.117 1.675 1.675 3.35 2.791 4.466 0.558 1.117 1.675 2.233 2.234 2.792 0.558 1.117 1.117 2.233 2.233 3.35 1.117 1.117 2.233 2.792 3.35 3.908 1.675 2.792 3.908 5.025 6.141 6.7 1.117 1.117 2.233 1.675 3.35 2.791 0.558 0.558 1.117 0.558 1.117 1.117 0.558 0.558 1.117 1.117 2.233 1.675 4.467 2.233 7.816 5.583 11.725 8.933 1.675 1.675 3.35 3.35 5.583 4.466 2.233 1.675 3.908 3.35 6.7 3.908 0 0 0.558 0 0.558 0.559 1.117 1.117 2.792 1.675 3.908 2.233 2.233 1.117 5.025 2.233 7.258 3.35 0.558 0.558 1.675 0.558 2.233 1.117 1.675 0.558 3.35 1.117 5.025 1.674 1.675 0.558 2.792 1.117 4.467 1.117h0.558c1.117 0.558 1.675 0.558 2.792 0 0.558 0 1.117 0 1.116 0.558 0 0.558 0.558 0.558 1.117 0.559 0.558 0 1.117 0 2.233 0 0.558-0.558 0.558-1.117 1.117-2.234 0.558 0.558 1.117 0.558 1.116 0.559 0.558 1.117 1.675 1.117 2.792 1.116h0.558c1.117 0 1.675 0 2.233-0.558 0-0.558 1.117-0.558 1.675-0.558 1.675 0.558 3.35 0.558 5.025 1.116 1.117 0.558 2.792 0.558 3.35-0.558 0.558-0.558 1.117-1.117 2.233-0.558 1.117 0.558 1.675 0.558 2.792 0 0.558 0 1.117 0 1.117 0 1.675 0.558 2.792 0.558 4.466 1.116 2.233 0.558 2.233 0.558 3.908-1.116 0.558-0.558 1.675-0.558 2.233 0 0.558 1.117 0.558 1.675 0.559 2.791 0.558 0 0.558 0 1.116-0.558 0-1.117 0.558-1.117 1.675-1.675 0.558 0.558 0.558 0.558 1.117 0.558 1.117 1.117 1.675 1.117 2.233-0.558 0-0.558 0-1.117 0.559-1.116 0.558 0 1.117 0.558 1.116 0.558 0.558 1.117 1.675 1.675 2.233 2.791 1.117 1.117 2.792 1.117 3.35 0 0.558-0.558 1.117-0.558 1.675-0.558 0-0.558 0-1.117 0-1.675 1.675 1.117 1.117 1.117 0.559 1.117zM89.417 34.559c1.675 0.558 2.792 0.558 3.349-0.558-1.117 0.558-2.233-0.558-3.349 0.558z" fill="#fce44d" fill-rule="nonzero" stroke="none" stroke-width="1" stroke-linecap="butt" stroke-linejoin="miter" stroke-miterlimit="10" stroke-dasharray="" stroke-dashoffset="0" font-family="none" font-weight="none" font-size="none" text-anchor="none" style="mix-blend-mode: normal" data-fill-palette-color="tertiary"></path></g><g transform="matrix(1,0,0,1,64,134.36382840369743)"><svg viewBox="0 0 192 91.27234319260515" height="91.27234319260515" width="192"><g><svg viewBox="0 0 192 91.27234319260515" height="91.27234319260515" width="192"><g><svg viewBox="0 0 192 91.27234319260515" height="91.27234319260515" width="192"><g><svg viewBox="0 0 192 91.27234319260515" height="91.27234319260515" width="192"><g id="textblocktransform"><svg viewBox="0 0 192 91.27234319260515" height="91.27234319260515" width="192" id="textblock"><g><svg viewBox="0 0 192 59.56908940742259" height="59.56908940742259" width="192"><g transform="matrix(1,0,0,1,0,0)"><svg width="192" viewBox="1.5 -35.5 116.01903533935547 36" height="59.56908940742259" data-palette-color="#fce44d"><path d="M13.15 0L1.5 0 1.5-34Q1.5-34 1.65-34.5 1.8-35 2.5-35L2.5-35 14.5-35Q14.5-32.75 14.45-31.7 14.4-30.65 14.2-30.33 14-30 13.5-30L13.5-30 7.1-30 7.1-5 14.15-5Q14.15-2.65 14.1-1.6 14.05-0.55 13.85-0.28 13.65 0 13.15 0L13.15 0ZM12.2-16.4L1.9-16.4 1.9-21.5 13.15-21.5Q13.15-18.35 13.03-17.38 12.9-16.4 12.2-16.4L12.2-16.4ZM24.7-11.7L15.5-11.7Q15.5-14.2 15.62-15.35 15.75-16.5 16.5-16.5L16.5-16.5 25.7-16.5Q25.7-14.05 25.57-12.88 25.45-11.7 24.7-11.7L24.7-11.7ZM35.15 0L28.7 0 28.7-34Q28.7-34.5 29-34.75 29.3-35 30.09-35L30.09-35 34.9-35Q37.4-35 39.25-34.33 41.09-33.65 42.3-31.95 43.5-30.25 44.09-27.15 44.7-24.05 44.7-19.25L44.7-19.25Q44.7-14.25 44.14-10.6 43.59-6.95 42.45-4.6 41.3-2.25 39.5-1.13 37.7 0 35.15 0L35.15 0ZM34.3-29.9L34.3-5.3 35.3-5.3Q35.9-5.3 36.42-5.8 36.95-6.3 37.34-7.8 37.75-9.3 38-12.2 38.25-15.1 38.25-19.85L38.25-19.85Q38.25-23.2 38.02-25.2 37.8-27.2 37.42-28.23 37.05-29.25 36.5-29.58 35.95-29.9 35.25-29.9L35.25-29.9 34.3-29.9ZM58.34 0L46.69 0 46.69-34Q46.69-34 46.84-34.5 46.99-35 47.69-35L47.69-35 59.69-35Q59.69-32.75 59.64-31.7 59.59-30.65 59.39-30.33 59.19-30 58.69-30L58.69-30 52.29-30 52.29-5 59.34-5Q59.34-2.65 59.29-1.6 59.24-0.55 59.04-0.28 58.84 0 58.34 0L58.34 0ZM57.39-16.4L47.09-16.4 47.09-21.5 58.34-21.5Q58.34-18.35 58.22-17.38 58.09-16.4 57.39-16.4L57.39-16.4ZM67.29 0L67.29 0 67.29-34.5Q67.29-34.5 67.42-34.5 67.54-34.5 68.29-34.5L68.29-34.5 71.89-34.5Q72.64-34.5 72.77-34.5 72.89-34.5 72.89-34.5L72.89-34.5 72.89-1Q72.89-0.5 72.64-0.3 72.39-0.1 71.22-0.05 70.04 0 67.29 0ZM78.19-29.75L61.19-29.75 61.19-34Q61.19-35 62.19-35L62.19-35 79.19-35 79.19-30.75Q79.19-30.15 78.97-29.95 78.74-29.75 78.19-29.75L78.19-29.75ZM87.99 0.5L87.99 0.5Q85.54 0.5 83.81-0.28 82.09-1.05 81.04-3.05 79.99-5.05 79.49-8.6 78.99-12.15 78.99-17.7L78.99-17.7Q78.99-24.5 80.04-28.38 81.09-32.25 83.21-33.88 85.34-35.5 88.54-35.5L88.54-35.5Q90.99-35.5 92.69-34.68 94.39-33.85 95.44-31.88 96.49-29.9 96.96-26.5 97.44-23.1 97.44-17.9L97.44-17.9Q97.44-10.85 96.44-6.85 95.44-2.85 93.36-1.18 91.29 0.5 87.99 0.5ZM88.29-5.3L88.29-5.3Q89.54-5.3 90.16-6.55 90.79-7.8 91.04-10.55 91.29-13.3 91.29-17.7L91.29-17.7Q91.29-22.05 91.11-24.7 90.94-27.35 90.34-28.53 89.74-29.7 88.44-29.7L88.44-29.7Q87.24-29.7 86.59-28.43 85.94-27.15 85.66-24.25 85.39-21.35 85.39-16.45L85.39-16.45Q85.39-12.55 85.59-10.1 85.79-7.65 86.41-6.48 87.04-5.3 88.29-5.3ZM102.14 0L97.28 0 104.59-19.4 107.64-21.45Q107.64-21.45 107.86-22.73 108.09-24 108.53-25.93 108.98-27.85 109.53-29.75L109.53-29.75 110.84-34.1Q110.98-34.55 111.26-34.73 111.53-34.9 112.73-34.95 113.94-35 116.78-35L116.78-35 110.09-15.35 107.78-14.75Q107.78-14.75 107.44-13.35 107.09-11.95 106.51-9.88 105.94-7.8 105.19-5.8L105.19-5.8 103.28-0.7Q102.89 0 102.14 0L102.14 0ZM116.84 0L110.64 0 108.73-5.8Q108.09-7.8 107.53-9.88 106.98-11.95 106.64-13.35 106.28-14.75 106.28-14.75L106.28-14.75 104.44-16.75 98.64-34.05Q98.48-34.55 98.81-34.73 99.14-34.9 100.61-34.95 102.09-35 105.34-35L105.34-35 106.78-29.75Q107.34-27.8 107.76-25.9 108.19-24 108.41-22.73 108.64-21.45 108.64-21.45L108.64-21.45 110.64-20.35 117.39-0.8Q117.59-0.45 117.48-0.23 117.39 0 116.84 0L116.84 0Z" opacity="1" transform="matrix(1,0,0,1,0,0)" fill="#fce44d" class="wordmark-text-0" data-fill-palette-color="primary" id="text-0"></path></svg></g></svg></g><g transform="matrix(1,0,0,1,0,73.63192175836929)"><svg viewBox="0 0 192 17.64042143423587" height="17.64042143423587" width="192"><g transform="matrix(1,0,0,1,0,0)"><svg width="192" viewBox="0.8500000238418579 -30.149999618530273 441.30999755859375 40.54999923706055" height="17.64042143423587" data-palette-color="#f3a83c"><path d="M13.25-20.95L17.7-20.95 23.55-7.5 22.55-7.45 27.9-20.95 32.95-20.95 23.35 1.25 16.65-13 10.5 1.25 0.85-20.95 5.9-20.95 12.1-6.85 10.3-7.15 14.8-17.55 13.25-20.95ZM45.75 0.5L45.75 0.5Q42.8 0.5 40.4-0.73 38-1.95 36.6-4.4 35.2-6.85 35.2-10.45L35.2-10.45Q35.2-14 36.67-16.55 38.15-19.1 40.57-20.48 43-21.85 45.85-21.85L45.85-21.85Q48.85-21.85 50.77-20.58 52.7-19.3 53.8-17.6L53.8-17.6 53.45-16.8 53.95-20.95 58.7-20.95 58.7 0 53.55 0 53.55-5.25 54.1-4Q53.9-3.6 53.25-2.88 52.6-2.15 51.52-1.35 50.45-0.55 49.02-0.03 47.6 0.5 45.75 0.5ZM47.15-3.7L47.15-3.7Q48.8-3.7 50.1-4.3 51.4-4.9 52.3-6 53.2-7.1 53.55-8.6L53.55-8.6 53.55-12.95Q53.15-14.35 52.2-15.38 51.25-16.4 49.92-17 48.6-17.6 47-17.6L47-17.6Q45.2-17.6 43.7-16.73 42.2-15.85 41.3-14.3 40.4-12.75 40.4-10.7L40.4-10.7Q40.4-8.75 41.32-7.15 42.25-5.55 43.8-4.63 45.35-3.7 47.15-3.7ZM72.7 0.45L72.7 0.45Q70.4 0.45 68.25-0.38 66.1-1.2 64.7-2.8L64.7-2.8 66.9-5.7Q68.25-4.45 69.62-3.83 71-3.2 72.25-3.2L72.25-3.2Q73.25-3.2 74.05-3.43 74.85-3.65 75.35-4.2 75.85-4.75 75.85-5.65L75.85-5.65Q75.85-6.7 75.15-7.3 74.45-7.9 73.35-8.3 72.25-8.7 71-9.05L71-9.05Q68.35-9.9 67-11.48 65.65-13.05 65.65-15.2L65.65-15.2Q65.65-16.85 66.47-18.32 67.3-19.8 69-20.75 70.7-21.7 73.2-21.7L73.2-21.7Q75.5-21.7 77.25-21.18 79-20.65 80.5-19.4L80.5-19.4 78.5-16.3Q77.6-17.2 76.37-17.68 75.15-18.15 74.15-18.2L74.15-18.2Q73.25-18.2 72.5-17.93 71.75-17.65 71.3-17.13 70.85-16.6 70.85-15.9L70.85-15.9Q70.8-14.9 71.52-14.28 72.25-13.65 73.4-13.28 74.55-12.9 75.65-12.5L75.65-12.5Q77.2-12.05 78.4-11.28 79.6-10.5 80.3-9.4 81-8.3 81-6.6L81-6.6Q81-4.75 80.1-3.13 79.2-1.5 77.35-0.53 75.5 0.45 72.7 0.45ZM89.34-20.9L89.34-30.15 94.49-30.15 94.49-20.9 100.09-20.9 100.09-16.85 94.49-16.85 94.49 0 89.34 0 89.34-16.85 85.64-16.85 85.64-20.9 89.34-20.9ZM115.49 0.5L115.49 0.5Q111.84 0.5 109.24-0.93 106.64-2.35 105.24-4.88 103.84-7.4 103.84-10.65L103.84-10.65Q103.84-13.75 105.42-16.28 106.99-18.8 109.67-20.3 112.34-21.8 115.59-21.8L115.59-21.8Q119.79-21.8 122.57-19.35 125.34-16.9 126.29-12.5L126.29-12.5 109.24-6.6 108.04-9.6 121.69-14.5 120.64-13.85Q120.04-15.4 118.74-16.57 117.44-17.75 115.19-17.75L115.19-17.75Q113.39-17.75 111.97-16.88 110.54-16 109.72-14.48 108.89-12.95 108.89-10.9L108.89-10.9Q108.89-8.8 109.77-7.23 110.64-5.65 112.17-4.75 113.69-3.85 115.59-3.85L115.59-3.85Q116.94-3.85 118.17-4.35 119.39-4.85 120.49-5.6L120.49-5.6 122.84-1.8Q121.19-0.75 119.27-0.13 117.34 0.5 115.49 0.5ZM147.89-20.95L152.49-20.95 152.94-16.45 152.74-16.8Q153.94-19.15 156.04-20.48 158.14-21.8 160.89-21.8L160.89-21.8Q162.59-21.8 163.96-21.25 165.34-20.7 166.24-19.7 167.14-18.7 167.39-17.2L167.39-17.2 167.14-17.05Q168.39-19.25 170.46-20.53 172.54-21.8 174.89-21.8L174.89-21.8Q177.94-21.8 179.76-20.05 181.59-18.3 181.64-15.55L181.64-15.55 181.64 0 176.54 0 176.54-13.6Q176.49-15.15 175.81-16.2 175.14-17.25 173.44-17.35L173.44-17.35Q171.64-17.35 170.26-16.25 168.89-15.15 168.14-13.4 167.39-11.65 167.34-9.65L167.34-9.65 167.34 0 162.19 0 162.19-13.6Q162.14-15.15 161.44-16.2 160.74-17.25 158.99-17.35L158.99-17.35Q157.19-17.35 155.84-16.25 154.49-15.15 153.76-13.38 153.04-11.6 153.04-9.65L153.04-9.65 153.04 0 147.89 0 147.89-20.95ZM198.28 0.5L198.28 0.5Q195.33 0.5 192.93-0.73 190.53-1.95 189.13-4.4 187.73-6.85 187.73-10.45L187.73-10.45Q187.73-14 189.21-16.55 190.68-19.1 193.11-20.48 195.53-21.85 198.38-21.85L198.38-21.85Q201.38-21.85 203.31-20.58 205.23-19.3 206.33-17.6L206.33-17.6 205.98-16.8 206.48-20.95 211.23-20.95 211.23 0 206.08 0 206.08-5.25 206.63-4Q206.43-3.6 205.78-2.88 205.13-2.15 204.06-1.35 202.98-0.55 201.56-0.03 200.13 0.5 198.28 0.5ZM199.68-3.7L199.68-3.7Q201.33-3.7 202.63-4.3 203.93-4.9 204.83-6 205.73-7.1 206.08-8.6L206.08-8.6 206.08-12.95Q205.68-14.35 204.73-15.38 203.78-16.4 202.46-17 201.13-17.6 199.53-17.6L199.53-17.6Q197.73-17.6 196.23-16.73 194.73-15.85 193.83-14.3 192.93-12.75 192.93-10.7L192.93-10.7Q192.93-8.75 193.86-7.15 194.78-5.55 196.33-4.63 197.88-3.7 199.68-3.7ZM219.13-20.95L223.73-20.95 224.18-16.15 223.98-16.8Q225.03-19.05 227.23-20.43 229.43-21.8 232.43-21.8L232.43-21.8Q235.38-21.8 237.31-20.05 239.23-18.3 239.28-15.5L239.28-15.5 239.28 0 234.13 0 234.13-13.7Q234.08-15.3 233.18-16.32 232.28-17.35 230.38-17.4L230.38-17.4Q228.68-17.4 227.28-16.38 225.88-15.35 225.08-13.6 224.28-11.85 224.28-9.55L224.28-9.55 224.28 0 219.13 0 219.13-20.95ZM255.93 0.5L255.93 0.5Q252.98 0.5 250.58-0.73 248.18-1.95 246.78-4.4 245.38-6.85 245.38-10.45L245.38-10.45Q245.38-14 246.85-16.55 248.33-19.1 250.75-20.48 253.18-21.85 256.03-21.85L256.03-21.85Q259.03-21.85 260.95-20.58 262.88-19.3 263.98-17.6L263.98-17.6 263.63-16.8 264.13-20.95 268.88-20.95 268.88 0 263.73 0 263.73-5.25 264.28-4Q264.08-3.6 263.43-2.88 262.78-2.15 261.7-1.35 260.63-0.55 259.2-0.03 257.78 0.5 255.93 0.5ZM257.33-3.7L257.33-3.7Q258.98-3.7 260.28-4.3 261.58-4.9 262.48-6 263.38-7.1 263.73-8.6L263.73-8.6 263.73-12.95Q263.33-14.35 262.38-15.38 261.43-16.4 260.1-17 258.78-17.6 257.18-17.6L257.18-17.6Q255.38-17.6 253.88-16.73 252.38-15.85 251.48-14.3 250.58-12.75 250.58-10.7L250.58-10.7Q250.58-8.75 251.5-7.15 252.43-5.55 253.98-4.63 255.53-3.7 257.33-3.7ZM287.03 10.4L287.03 10.4Q284.58 10.4 282.78 9.85 280.98 9.3 279.55 8.33 278.13 7.35 276.83 6.25L276.83 6.25 279.88 2.7Q281.43 4.15 283.08 5.03 284.73 5.9 286.93 5.9L286.93 5.9Q289.13 5.9 290.7 5.18 292.28 4.45 293.13 3.15 293.98 1.85 293.98 0.05L293.98 0.05 294.03-5.4 294.38-4.4Q293.53-2.35 291.23-0.93 288.93 0.5 285.58 0.5L285.58 0.5Q282.73 0.5 280.3-0.95 277.88-2.4 276.43-4.9 274.98-7.4 274.98-10.55L274.98-10.55Q274.98-13.85 276.5-16.38 278.03-18.9 280.53-20.38 283.03-21.85 285.88-21.85L285.88-21.85Q288.68-21.85 290.88-20.78 293.08-19.7 294.18-18.1L294.18-18.1 293.88-17.25 294.43-20.95 299.18-20.95 299.18 0.1Q299.18 3 297.65 5.33 296.13 7.65 293.43 9.03 290.73 10.4 287.03 10.4ZM280.18-10.7L280.18-10.7Q280.18-8.75 281.08-7.15 281.98-5.55 283.55-4.63 285.13-3.7 287.08-3.7L287.08-3.7Q288.83-3.7 290.23-4.33 291.63-4.95 292.6-6.03 293.58-7.1 294.03-8.55L294.03-8.55 294.03-12.9Q293.58-14.35 292.58-15.38 291.58-16.4 290.18-17 288.78-17.6 287.08-17.6L287.08-17.6Q285.13-17.6 283.55-16.73 281.98-15.85 281.08-14.3 280.18-12.75 280.18-10.7ZM316.87 0.5L316.87 0.5Q313.22 0.5 310.62-0.93 308.02-2.35 306.62-4.88 305.22-7.4 305.22-10.65L305.22-10.65Q305.22-13.75 306.8-16.28 308.37-18.8 311.05-20.3 313.72-21.8 316.97-21.8L316.97-21.8Q321.17-21.8 323.95-19.35 326.72-16.9 327.67-12.5L327.67-12.5 310.62-6.6 309.42-9.6 323.07-14.5 322.02-13.85Q321.42-15.4 320.12-16.57 318.82-17.75 316.57-17.75L316.57-17.75Q314.77-17.75 313.35-16.88 311.92-16 311.1-14.48 310.27-12.95 310.27-10.9L310.27-10.9Q310.27-8.8 311.15-7.23 312.02-5.65 313.55-4.75 315.07-3.85 316.97-3.85L316.97-3.85Q318.32-3.85 319.55-4.35 320.77-4.85 321.87-5.6L321.87-5.6 324.22-1.8Q322.57-0.75 320.65-0.13 318.72 0.5 316.87 0.5ZM333.37-20.95L337.97-20.95 338.42-16.45 338.22-16.8Q339.42-19.15 341.52-20.48 343.62-21.8 346.37-21.8L346.37-21.8Q348.07-21.8 349.45-21.25 350.82-20.7 351.72-19.7 352.62-18.7 352.87-17.2L352.87-17.2 352.62-17.05Q353.87-19.25 355.95-20.53 358.02-21.8 360.37-21.8L360.37-21.8Q363.42-21.8 365.25-20.05 367.07-18.3 367.12-15.55L367.12-15.55 367.12 0 362.02 0 362.02-13.6Q361.97-15.15 361.3-16.2 360.62-17.25 358.92-17.35L358.92-17.35Q357.12-17.35 355.75-16.25 354.37-15.15 353.62-13.4 352.87-11.65 352.82-9.65L352.82-9.65 352.82 0 347.67 0 347.67-13.6Q347.62-15.15 346.92-16.2 346.22-17.25 344.47-17.35L344.47-17.35Q342.67-17.35 341.32-16.25 339.97-15.15 339.25-13.38 338.52-11.6 338.52-9.65L338.52-9.65 338.52 0 333.37 0 333.37-20.95ZM384.87 0.5L384.87 0.5Q381.22 0.5 378.62-0.93 376.02-2.35 374.62-4.88 373.22-7.4 373.22-10.65L373.22-10.65Q373.22-13.75 374.79-16.28 376.37-18.8 379.04-20.3 381.72-21.8 384.97-21.8L384.97-21.8Q389.17-21.8 391.94-19.35 394.72-16.9 395.67-12.5L395.67-12.5 378.62-6.6 377.42-9.6 391.07-14.5 390.02-13.85Q389.42-15.4 388.12-16.57 386.82-17.75 384.57-17.75L384.57-17.75Q382.77-17.75 381.34-16.88 379.92-16 379.09-14.48 378.27-12.95 378.27-10.9L378.27-10.9Q378.27-8.8 379.14-7.23 380.02-5.65 381.54-4.75 383.07-3.85 384.97-3.85L384.97-3.85Q386.32-3.85 387.54-4.35 388.77-4.85 389.87-5.6L389.87-5.6 392.22-1.8Q390.57-0.75 388.64-0.13 386.72 0.5 384.87 0.5ZM401.37-20.95L405.97-20.95 406.42-16.15 406.22-16.8Q407.27-19.05 409.47-20.43 411.67-21.8 414.67-21.8L414.67-21.8Q417.62-21.8 419.54-20.05 421.47-18.3 421.52-15.5L421.52-15.5 421.52 0 416.37 0 416.37-13.7Q416.32-15.3 415.42-16.32 414.52-17.35 412.62-17.4L412.62-17.4Q410.92-17.4 409.52-16.38 408.12-15.35 407.32-13.6 406.52-11.85 406.52-9.55L406.52-9.55 406.52 0 401.37 0 401.37-20.95ZM431.41-20.9L431.41-30.15 436.56-30.15 436.56-20.9 442.16-20.9 442.16-16.85 436.56-16.85 436.56 0 431.41 0 431.41-16.85 427.71-16.85 427.71-20.9 431.41-20.9Z" opacity="1" transform="matrix(1,0,0,1,0,0)" fill="#f3a83c" class="slogan-text-1" data-fill-palette-color="secondary" id="text-1"></path></svg></g></svg></g></svg></g></svg></g></svg></g></svg></g></svg></g></svg></g><defs></defs></svg><rect width="320" height="360" fill="none" stroke="none" visibility="hidden"></rect></g></svg></g></svg>